PathFileType	4	(X/Y/Z)	C:\Users\WrightLab\Desktop\Jo\P4V129.trc
DataRate	CameraRate	NumFrames	NumMarkers	Units	OrigDataRate	OrigDataStartFrame	OrigNumFrames
100.00	100.00	       46	19	mm	100.00	400	       456
Frame#	Time	Headset_Front			Headset_Back			Headset_Left			Headset_Right			Left_Shoulder			Right_Shoulder			Sternum			C7			Left Elbow			Right Elbow			Left Wrist			Right Wrist			Left ASIS			Right ASIS			S2			Left Knee			Right Knee			Left Ankle			Right Ankle			
		X1	Y1	Z1	X2	Y2	Z2	X3	Y3	Z3	X4	Y4	Z4	X5	Y5	Z5	X6	Y6	Z6	X7	Y7	Z7	X8	Y8	Z8	X9	Y9	Z9	X10	Y10	Z10	X11	Y11	Z11	X12	Y12	Z12	X13	Y13	Z13	X14	Y14	Z14	X15	Y15	Z15	X16	Y16	Z16	X17	Y17	Z17	X18	Y18	Z18	X19	Y19	Z19	

400	3.990																									-581.31171	1135.21899	-1408.79626							-52.39906	1144.53516	-1182.56714										-506.32166	503.93903	-1386.11011				-585.54706	212.19429	-989.20691	-181.25214	28.27377	-1347.69568	
401	4.000																									-578.22205	1136.95654	-1414.50977							-45.95238	1145.63062	-1189.37915										-499.64981	504.97513	-1400.37451				-579.40308	216.15742	-1001.98358	-180.86206	28.59027	-1347.27124	
402	4.010																									-575.92188	1137.17395	-1416.48499							-40.03490	1147.35046	-1196.61096										-493.00327	506.20255	-1413.58032				-573.00751	219.27222	-1013.77472	-181.09119	28.43198	-1347.66064	
403	4.020																									-573.41278	1138.30591	-1420.24390							-33.68455	1149.75562	-1206.35193										-487.31696	508.55304	-1425.00085				-563.57990	222.98013	-1023.47614	-180.72151	28.76938	-1347.25073	
404	4.030																									-571.54980	1139.02283	-1422.04553							-27.07136	1151.31763	-1213.40552										-481.06619	508.49609	-1441.81274				-558.82544	223.11453	-1039.94910	-181.07431	28.46273	-1347.65503	
405	4.040																									-569.89825	1139.99707	-1424.08289							-21.14187	1153.39746	-1222.80884										-473.93307	510.47943	-1451.64185				-551.27124	224.34778	-1050.15015	-181.10059	28.47794	-1347.67212	
406	4.050																									-568.94745	1140.86743	-1424.93066							-15.05054	1154.88330	-1230.64465										-468.23856	513.69672	-1462.11255				-543.32092	222.15173	-1064.46997	-181.11050	28.50041	-1347.68079	
407	4.060																									-566.64709	1142.48584	-1428.65552							-10.28260	1154.44788	-1246.71777										-463.03424	515.47113	-1475.12158				-537.64056	216.50591	-1084.10913	-181.12209	28.51531	-1347.68945	
408	4.070																									-565.90350	1142.87463	-1427.94312																			-456.90698	518.04468	-1483.08154				-528.98816	217.82538	-1090.12781	-181.15910	28.52600	-1347.71216	
409	4.080																									-564.91461	1143.77344	-1428.70142																			-450.69379	521.89252	-1490.95203				-523.10095	209.67999	-1110.72253	-179.89542	30.19404	-1346.81873	
410	4.090																									-564.06030	1145.23926	-1430.52368																			-445.05249	522.66296	-1504.35059				-516.19452	204.78404	-1125.88220	-179.88481	30.20786	-1346.80994	
411	4.100																									-563.51556	1145.71582	-1429.76868																			-438.54279	523.55408	-1510.17212				-508.50479	199.56668	-1139.55640	-179.88710	30.41295	-1346.81873	
412	4.110																									-562.61816	1147.21814	-1431.29285																									-501.24243	187.42886	-1161.09570	-179.88765	30.43386	-1346.82214	
413	4.120																									-562.14111	1147.72253	-1430.52161																									-493.16776	182.57639	-1173.16541	-180.20087	30.12925	-1348.49268	
414	4.130																									-560.83905	1148.48669	-1431.21143																									-485.21844	171.04987	-1191.68079	-180.25832	30.10258	-1348.54663	
415	4.140																									-559.51874	1149.28491	-1431.86816																									-478.77838	159.53244	-1213.15491	-180.27686	30.09781	-1348.56458	
416	4.150																									-558.56360	1150.86536	-1433.55945																									-470.94412	150.23987	-1225.26489	-180.28854	30.08935	-1348.57507	
417	4.160																									-557.84448	1152.13525	-1434.45923																									-463.31143	139.09100	-1245.88269	-180.36060	30.05639	-1348.64282	
418	4.170																									-556.87201	1153.31689	-1435.17786																									-457.92661	127.71053	-1265.57214	-180.26784	30.16231	-1349.06982	
419	4.180																									-555.59216	1153.59863	-1435.07922																									-450.89188	114.66143	-1288.41223	-180.72206	29.35167	-1351.56335	
420	4.190																									-553.91095	1154.24976	-1435.81653																									-443.10220	103.72298	-1307.92737	-180.78250	29.31462	-1351.65198	
421	4.200																									-552.27069	1156.71985	-1440.27307																									-436.75037	93.66385	-1324.59070	-180.97040	29.93406	-1350.86731	
422	4.210																									-550.94934	1157.40735	-1441.13916																									-430.60086	84.63855	-1344.11597	-180.24200	30.04122	-1349.78711	
423	4.220																									-549.59875	1158.02307	-1442.37939																									-424.66934	75.24136	-1365.19324	-180.34213	29.71724	-1351.35352	
424	4.230																									-546.94214	1158.73474	-1445.40991																									-419.26715	66.07740	-1384.71277	-180.85744	29.28803	-1350.62134	
425	4.240																									-545.10474	1160.28601	-1449.46497																									-414.29941	59.08412	-1403.29175	-180.86186	29.28749	-1350.62341	
426	4.250																									-543.64374	1160.53687	-1451.24829																									-408.73978	50.96109	-1424.24768	-181.45473	29.98513	-1350.59021	
427	4.260																									-541.06396	1161.52917	-1455.94019																									-404.11444	46.20612	-1442.05688	-181.01280	29.67817	-1350.93030	
428	4.270																									-539.21051	1162.90210	-1461.14294																									-399.84204	41.58284	-1457.08020	-180.88155	29.29359	-1350.63354	
429	4.280																									-536.71478	1162.86853	-1464.61304																									-395.19711	39.60099	-1473.03467	-181.01224	29.68543	-1350.93079	
430	4.290																									-534.82037	1162.46216	-1466.95691																									-391.43182	36.64281	-1484.39758	-181.00993	29.67914	-1350.92896	
431	4.300																									-532.00549	1162.75989	-1472.22156																									-386.55655	32.23461	-1501.52515	-182.02725	29.89914	-1350.15454	
432	4.310																									-529.94147	1163.31836	-1477.35132																									-382.82336	30.96403	-1511.50244	-181.42992	28.83026	-1351.07190	
433	4.320																									-527.53387	1163.57043	-1482.67603																									-379.60474	30.92883	-1517.61438	-181.33339	29.32044	-1351.38843	
434	4.330																									-525.23901	1163.28906	-1486.87903																									-375.96796	30.39834	-1526.13147	-182.03117	29.52527	-1351.04224	
435	4.340																									-522.75665	1162.02075	-1490.17542																									-372.27496	27.65408	-1537.37952	-181.88205	29.15268	-1350.84961	
436	4.350																									-520.27509	1162.49719	-1496.76770																									-370.72290	28.86725	-1537.98804	-181.65497	28.70601	-1350.66174	
437	4.360																									-517.77637	1162.98657	-1503.62781																									-368.12381	28.99822	-1545.70898	-181.45662	28.83233	-1351.08496	
438	4.370																									-515.46832	1162.03406	-1507.75220																									-365.75705	28.08456	-1554.67908	-181.55478	29.21108	-1351.36511	
439	4.380																									-513.17517	1161.04272	-1511.96082																									-365.22656	27.19475	-1555.80811	-181.84035	29.15531	-1350.91321	
440	4.390																									-511.14178	1160.44983	-1516.68286																									-364.58847	26.53928	-1559.21411	-181.64279	28.69878	-1350.65515	
441	4.400																									-509.33057	1161.03064	-1523.32739																									-365.05792	27.98786	-1558.33521	-182.02075	29.51570	-1351.03625	
442	4.410																									-506.68066	1160.74927	-1529.44885																									-363.81680	26.51649	-1566.31213	-182.30756	29.52341	-1350.59119	
443	4.420																									-505.09860	1160.00452	-1533.52661																									-363.55072	26.49746	-1570.60046	-181.46422	28.82680	-1351.08801	
444	4.430																									-502.84360	1159.48303	-1538.69153																									-363.83194	25.92085	-1572.27820	-181.45143	28.82803	-1351.08203	
445	4.440																									-501.11725	1158.90479	-1543.48718																									-364.19183	25.18471	-1574.42542	-182.01096	29.51736	-1351.03174	
